<svg width="16" height="17" viewBox="0 0 16 17" fill="none" xmlns="http://www.w3.org/2000/svg">
<path d="M14 8.33342H2.00004C1.36004 8.33342 0.833374 7.80676 0.833374 7.16676V4.95342C0.833374 4.50008 1.14669 4.04009 1.56669 3.87342L7.56669 1.47344C7.82002 1.37344 8.18006 1.37344 8.43339 1.47344L14.4334 3.87342C14.8534 4.04009 15.1667 4.50675 15.1667 4.95342V7.16676C15.1667 7.80676 14.64 8.33342 14 8.33342ZM8.00004 2.39344C7.97337 2.39344 7.94672 2.39341 7.93339 2.40007L1.94002 4.8001C1.90002 4.8201 1.83337 4.90675 1.83337 4.95342V7.16676C1.83337 7.26009 1.90671 7.33342 2.00004 7.33342H14C14.0934 7.33342 14.1667 7.26009 14.1667 7.16676V4.95342C14.1667 4.90675 14.1067 4.8201 14.0601 4.8001L8.06006 2.40007C8.04673 2.39341 8.02671 2.39344 8.00004 2.39344Z" fill="white"/>
<path d="M14.6667 15.6667H1.33337C1.06004 15.6667 0.833374 15.44 0.833374 15.1667V13.1667C0.833374 12.5267 1.36004 12 2.00004 12H14C14.64 12 15.1667 12.5267 15.1667 13.1667V15.1667C15.1667 15.44 14.94 15.6667 14.6667 15.6667ZM1.83337 14.6667H14.1667V13.1667C14.1667 13.0733 14.0934 13 14 13H2.00004C1.90671 13 1.83337 13.0733 1.83337 13.1667V14.6667Z" fill="white"/>
<path d="M2.66663 13.0002C2.39329 13.0002 2.16663 12.7735 2.16663 12.5002V7.8335C2.16663 7.56016 2.39329 7.3335 2.66663 7.3335C2.93996 7.3335 3.16663 7.56016 3.16663 7.8335V12.5002C3.16663 12.7735 2.93996 13.0002 2.66663 13.0002Z" fill="white"/>
<path d="M5.33337 13.0002C5.06004 13.0002 4.83337 12.7735 4.83337 12.5002V7.8335C4.83337 7.56016 5.06004 7.3335 5.33337 7.3335C5.60671 7.3335 5.83337 7.56016 5.83337 7.8335V12.5002C5.83337 12.7735 5.60671 13.0002 5.33337 13.0002Z" fill="white"/>
<path d="M8 13.0002C7.72667 13.0002 7.5 12.7735 7.5 12.5002V7.8335C7.5 7.56016 7.72667 7.3335 8 7.3335C8.27333 7.3335 8.5 7.56016 8.5 7.8335V12.5002C8.5 12.7735 8.27333 13.0002 8 13.0002Z" fill="white"/>
<path d="M10.6666 13.0002C10.3933 13.0002 10.1666 12.7735 10.1666 12.5002V7.8335C10.1666 7.56016 10.3933 7.3335 10.6666 7.3335C10.94 7.3335 11.1666 7.56016 11.1666 7.8335V12.5002C11.1666 12.7735 10.94 13.0002 10.6666 13.0002Z" fill="white"/>
<path d="M13.3334 13.0002C13.06 13.0002 12.8334 12.7735 12.8334 12.5002V7.8335C12.8334 7.56016 13.06 7.3335 13.3334 7.3335C13.6067 7.3335 13.8334 7.56016 13.8334 7.8335V12.5002C13.8334 12.7735 13.6067 13.0002 13.3334 13.0002Z" fill="white"/>
<path d="M15.3333 15.6665H0.666626C0.393293 15.6665 0.166626 15.4398 0.166626 15.1665C0.166626 14.8932 0.393293 14.6665 0.666626 14.6665H15.3333C15.6066 14.6665 15.8333 14.8932 15.8333 15.1665C15.8333 15.4398 15.6066 15.6665 15.3333 15.6665Z" fill="white"/>
<path d="M8 6.6665C7.17333 6.6665 6.5 5.99317 6.5 5.1665C6.5 4.33984 7.17333 3.6665 8 3.6665C8.82667 3.6665 9.5 4.33984 9.5 5.1665C9.5 5.99317 8.82667 6.6665 8 6.6665ZM8 4.6665C7.72667 4.6665 7.5 4.89317 7.5 5.1665C7.5 5.43984 7.72667 5.6665 8 5.6665C8.27333 5.6665 8.5 5.43984 8.5 5.1665C8.5 4.89317 8.27333 4.6665 8 4.6665Z" fill="white"/>
</svg>
